<svg xmlns="http://www.w3.org/2000/svg" width="604" height="618" viewBox="0 0 604 618">
  <g id="Group_7" data-name="Group 7" transform="translate(-954 -254)">
    <g id="Rectangle_5" data-name="Rectangle 5" transform="translate(1266 254)" fill="#6e00ff" stroke="#707070" stroke-width="1">
      <rect width="156" height="156" rx="32" stroke="none"/>
      <rect x="0.5" y="0.5" width="155" height="155" rx="31.5" fill="none"/>
    </g>
    <g id="Rectangle_10" data-name="Rectangle 10" transform="translate(1266 564)" fill="#6e00ff" stroke="#707070" stroke-width="1">
      <rect width="156" height="156" rx="32" stroke="none"/>
      <rect x="0.5" y="0.5" width="155" height="155" rx="31.5" fill="none"/>
    </g>
    <g id="Rectangle_9" data-name="Rectangle 9" transform="translate(1402 410)" fill="#6e00ff" stroke="#707070" stroke-width="1" opacity="0.47">
      <rect width="156" height="156" rx="32" stroke="none"/>
      <rect x="0.5" y="0.5" width="155" height="155" rx="31.5" fill="none"/>
    </g>
    <g id="Rectangle_7" data-name="Rectangle 7" transform="translate(1113 404)" fill="#fff" stroke="#707070" stroke-width="1">
      <rect width="156" height="156" rx="32" stroke="none"/>
      <rect x="0.5" y="0.5" width="155" height="155" rx="31.5" fill="none"/>
    </g>
    <g id="Rectangle_11" data-name="Rectangle 11" transform="translate(1110 716)" fill="#fff" stroke="#707070" stroke-width="1">
      <rect width="156" height="156" rx="32" stroke="none"/>
      <rect x="0.5" y="0.5" width="155" height="155" rx="31.5" fill="none"/>
    </g>
    <g id="Rectangle_14" data-name="Rectangle 14" transform="translate(954 553)" fill="#fff" stroke="#707070" stroke-width="1" opacity="0.38">
      <rect width="156" height="156" rx="32" stroke="none"/>
      <rect x="0.5" y="0.5" width="155" height="155" rx="31.5" fill="none"/>
    </g>
    <g id="Ellipse_4" data-name="Ellipse 4" transform="translate(1110 560)" fill="#75e6ff" stroke="#707070" stroke-width="1">
      <circle cx="78" cy="78" r="78" stroke="none"/>
      <circle cx="78" cy="78" r="77.5" fill="none"/>
    </g>
  </g>
</svg>
