<svg fill="none" height="512" viewBox="0 0 36 36" width="512" xmlns="http://www.w3.org/2000/svg"><path d="m23.0562 5.59376c-5.7329-1.94482-13.0051 1.35057-15.9246 3.24136-7.96228 4.86208-2.38868 17.01718 0 20.25848 2.38869 3.2414 5.5736.8103 9.5547-.8103 3.9812-1.6207 3.9812 2.431 10.351 2.431s7.9623-10.5344 3.1849-15.3965c-4.7773-4.862 0-7.29302-7.166-9.72404z" fill="#efefef"/><path clip-rule="evenodd" d="m19.5 32.7144c.2761 0 .5-.2239.5-.5 0-.2762-.2239-.5-.5-.5s-.5.2238-.5.5c0 .2761.2239.5.5.5zm0 1c.8284 0 1.5-.6716 1.5-1.5 0-.8285-.6716-1.5-1.5-1.5s-1.5.6715-1.5 1.5c0 .8284.6716 1.5 1.5 1.5z" fill="#a4afc1" fill-rule="evenodd"/><path d="m18.7281 22.6464c-.3843 0-.6819-.3421-.5773-.7118.1226-.4338.2973-.8457.5168-1.2287.1763-.3076.5934-.3366.8442-.0859.306.306.8022.306 1.1082 0s.306-.8022 0-1.1083c-.2507-.2507-.2217-.6678.086-.8442.3829-.2195.7948-.3941 1.2286-.5167.3697-.1046.7118.193.7118.5773 0 .4328.3508.7837.7836.7837s.7837-.3509.7837-.7837c0-.3843.342-.6819.7118-.5773.4337.1226.8456.2972 1.2286.5167.3076.1764.3367.5935.0859.8442-.306.3061-.306.8023 0 1.1083.3061.306.8022.306 1.1083 0 .2507-.2507.6678-.2217.8442.0859.2195.383.3941.7949.5167 1.2287.1046.3697-.193.7118-.5773.7118-.4328 0-.7836.3508-.7836.7836s.3508.7837.7836.7837c.3843 0 .6819.342.5773.7118-.1226.4337-.2972.8457-.5167 1.2286-.1764.3076-.5935.3367-.8442.0859-.3061-.306-.8023-.306-1.1083 0-.306.3061-.306.8023 0 1.1083.2507.2507.2217.6678-.0859.8442-.383.2195-.7949.3941-1.2286.5167-.3698.1046-.7118-.193-.7118-.5773 0-.4328-.3509-.7836-.7837-.7836s-.7836.3508-.7836.7836c0 .3843-.342.6819-.7118.5774-.4013-.1135-.7839-.2715-1.1421-.4683-.2632-.1446-.2892-.5005-.0705-.7063.3363-.3165.3444-.8484.0178-1.1749-.3197-.3197-.838-.3197-1.1577 0-.2463.2463-.6551.2231-.8367-.0742-.2563-.4196-.4578-.8763-.5946-1.3602-.1046-.3697.193-.7117.5773-.7117.4328 0 .7837-.3509.7837-.7837s-.3509-.7836-.7837-.7836z" fill="#2edf84"/><g clip-rule="evenodd" fill-rule="evenodd"><path d="m18.1508 21.9346c-.1046.3697.193.7118.5773.7118.4328 0 .7837.3508.7837.7836s-.3509.7837-.7837.7837c-.3843 0-.6819.342-.5773.7117.1368.4839.3383.9406.5946 1.3602.1816.2973.5904.3205.8367.0742.1566-.1567.3609-.2365.5661-.2397-.2104-.3733-.3784-.7737-.4974-1.1947-.1046-.3697.193-.7117.5773-.7117.4328 0 .7837-.3509.7837-.7837s-.3509-.7836-.7837-.7836c-.3843 0-.6819-.3421-.5773-.7118.1075-.3802.2549-.7436.4375-1.0854-.208.0059-.4178-.0705-.5765-.2292-.2508-.2507-.6679-.2217-.8442.0859-.2195.383-.3942.7949-.5168 1.2287zm2.5887-1.468c.0987.0237.1937.0748.2723.1534.306.306.8022.306 1.1082 0s.306-.8022 0-1.1083c-.2507-.2507-.2217-.6678.086-.8442.125-.0716.253-.1385.384-.2003-.112-.2445-.3758-.3955-.6554-.3164-.4338.1226-.8457.2972-1.2286.5167-.3077.1764-.3367.5935-.086.8442.259.259.2988.6541.1195.9549zm3.4405-1.5106c.0976.3216.3965.5558.75.5558.4328 0 .7837-.3509.7837-.7837 0-.0936.0203-.1821.0564-.2609-.2702-.1276-.5525-.2338-.8446-.3164-.3698-.1046-.7118.193-.7118.5773 0 .0793-.0118.1558-.0337.2279zm3.4405 1.5106c.0326.0547.0724.1063.1195.1534.1473.1473.3387.2237.5318.2292-.0258-.0482-.0522-.0959-.0793-.1433-.1211-.2112-.3557-.2911-.572-.2393zm.6513 5.5442c-.1931.0055-.3845.0819-.5318.2292-.0471.0471-.0869.0987-.1195.1534.2163.0518.4509-.0281.572-.2393.0271-.0473.0535-.0951.0793-.1433zm-2.5017 2.382c-.0361-.0788-.0564-.1672-.0564-.2609 0-.4328-.3509-.7836-.7837-.7836-.3535 0-.6524.2341-.75.5557.0219.0721.0337.1486.0337.2279 0 .3843.342.6819.7118.5773.2921-.0826.5744-.1888.8446-.3164zm-3.1801 0c-.1009-.0476-.2001-.0983-.2975-.1518-.2632-.1446-.2892-.5005-.0705-.7063.3363-.3165.3444-.8484.0178-1.1749-.3197-.3197-.838-.3197-1.1577 0-.067.067-.146.114-.2292.1411.2054.3239.1604.7597-.1309 1.0338-.2187.2058-.1927.5617.0705.7063.3582.1968.7408.3548 1.1421.4683.2796.079.5434-.072.6554-.3165z" fill="#00b872"/><path d="m11.75 7.75h-.75v-1.5h8v1.5h-.75v6.3333c0 .4959.3229 1.0065.8788 1.357.1017.0642.2018.1306.3003.1993l-.8582 1.2302c-.0794-.0554-.1602-.109-.2422-.1607-.8464-.5337-1.5787-1.4639-1.5787-2.6258v-6.3333h-3.5v6.3333c0 1.1619-.7325 2.0921-1.5788 2.6259-1.7568 1.1079-2.9212 3.0636-2.9212 5.2908 0 3.4518 2.7982 6.25 6.25 6.25.6218 0 1.221-.0906 1.7861-.2587l.4278 1.4377c-.7024.209-1.4457.321-2.2139.321-4.2802 0-7.75-3.4698-7.75-7.75 0-2.7635 1.44697-5.1885 3.6211-6.5596.5559-.3506.8789-.8612.8789-1.3571z" fill="#000"/><path d="m16 8.75h1.5v1.5h-1.5z" fill="#000"/><path d="m16 11.25h1.5v1.5h-1.5z" fill="#000"/><path d="m21.9113 18.943c-.2024.0685-.3987.1503-.5879.2445.4189.5982.3612 1.4286-.1731 1.9628-.5343.5343-1.3646.592-1.9628.1731-.0942.1892-.176.3855-.2445.5879.7453.1045 1.3187.7446 1.3187 1.5187s-.5734 1.4142-1.3187 1.5187c.0835.2469.1869.4848.3083.7117.6127-.4371 1.469-.3808 2.0188.169.5241.5241.5984 1.3242.2301 1.9266.1339.0599.271.1136.4111.161.1045-.7453.7446-1.3187 1.5187-1.3187s1.4142.5734 1.5187 1.3187c.2024-.0685.3987-.1503.5879-.2445-.4189-.5982-.3612-1.4285.1731-1.9628.5342-.5342 1.3646-.5919 1.9628-.173.0942-.1892.176-.3856.2445-.588-.7453-.1045-1.3188-.7446-1.3188-1.5187s.5735-1.4142 1.3188-1.5187c-.0685-.2024-.1503-.3987-.2445-.5879-.5982.4189-1.4286.3612-1.9628-.1731l.5303-.5303-.5303.5303c-.5343-.5342-.592-1.3646-.1731-1.9628-.1892-.0942-.3855-.176-.5879-.2445-.1045.7453-.7446 1.3188-1.5187 1.3188s-1.4142-.5735-1.5187-1.3188zm-.1808-1.5139c.9194-.26 1.6658.4937 1.6658 1.299 0 .0186.0151.0337.0337.0337s.0336-.0151.0336-.0337c0-.8053.7465-1.559 1.6659-1.299.4936.1395.9622.3382 1.3975.5878.7947.4555.7944 1.4741.2433 2.0252-.0131.0131-.0131.0344 0 .0476.0132.0131.0345.0131.0476 0 .551-.5511 1.5697-.5514 2.0252.2433.2496.4353.4483.9039.5878 1.3975.26.9194-.4937 1.6659-1.299 1.6659-.0186 0-.0337.015-.0337.0336s.0151.0337.0337.0337c.8053 0 1.559.7464 1.299 1.6658-.1395.4936-.3382.9622-.5878 1.3976-.4555.7946-1.4742.7943-2.0252.2433-.0131-.0132-.0344-.0132-.0476 0-.0131.0131-.0131.0344 0 .0476.5511.551.5514 1.5696-.2433 2.0252-.4353.2495-.9039.4482-1.3975.5878-.9194.2599-1.6659-.4937-1.6659-1.2991 0-.0186-.015-.0336-.0336-.0336s-.0337.015-.0337.0336c0 .8053-.7463 1.559-1.6658 1.2991-.4566-.1291-.8919-.3089-1.2992-.5326-.7621-.4187-.768-1.3973-.2233-1.9098.0281-.0266.0288-.0711.0014-.0985-.0267-.0268-.0702-.0268-.097 0-.5425.5426-1.5387.5531-2.007-.2135-.2914-.477-.5207-.9965-.6764-1.5471-.2599-.9194.4938-1.6658 1.2991-1.6658.0186 0 .0336-.0151.0336-.0337s-.015-.0336-.0336-.0336c-.8054 0-1.559-.7465-1.2991-1.6659.1396-.4936.3383-.9622.5879-1.3975.4555-.7947 1.4741-.7944 2.0252-.2433.0131.0131.0344.0131.0476 0 .0131-.0132.0131-.0345 0-.0476-.5511-.5511-.5514-1.5697.2433-2.0252.4353-.2496.9039-.4483 1.3975-.5878z" fill="#000"/></g></svg>