<svg width="519" height="377" viewBox="0 0 519 377" fill="none" xmlns="http://www.w3.org/2000/svg">
<g clip-path="url(#clip0_4_253)">
<path d="M302.317 66.4607C312.044 66.4607 319.929 58.5853 319.929 48.8704C319.929 39.1556 312.044 31.2801 302.317 31.2801C292.59 31.2801 284.704 39.1556 284.704 48.8704C284.704 58.5853 292.59 66.4607 302.317 66.4607Z" fill="#F2F2F2"/>
<path d="M438.941 327.521C465.119 307.606 477.623 274.142 469.795 242.219C469.601 241.425 469.395 240.634 469.179 239.844C463.99 220.895 451.151 202.886 432.439 196.831C416.727 191.747 399.577 195.656 383.185 193.635C351.008 189.666 326.062 163.664 308.509 136.439C290.957 109.214 277.467 78.7393 254.143 56.2475C215.697 19.1737 152.983 11.1916 105.315 35.324C57.6484 59.4563 27.285 112.996 28.5799 166.355C29.8749 219.714 61.5913 270.729 107.651 297.796C124.572 307.739 144.142 314.783 163.619 312.318C180.518 310.179 195.874 301.11 212.693 298.418C239.138 294.184 265.415 306.126 288.287 320.042C311.16 333.957 333.254 350.452 359.245 356.903C384.483 363.167 415.75 345.162 438.941 327.521Z" fill="#F2F2F2"/>
<path d="M401.328 36.4445C400.754 36.0624 400.174 35.7 399.6 35.3311C383.011 24.7349 365.231 16.1267 346.626 9.68424L342.312 69.1206H314.965V1.00792C313.243 0.652175 311.508 0.316191 309.773 -3.05176e-05V69.1206H277.274C259.383 69.1206 242.224 62.0223 229.573 49.387C216.922 36.7518 209.815 19.6148 209.815 1.74585V1.74579C208.074 2.1213 206.345 2.52317 204.617 2.95138V69.1207H178.147L174.037 12.4446C154.918 19.7679 136.767 29.3985 119.988 41.1219C119.698 41.3196 119.408 41.5238 119.124 41.7214C117.666 42.7425 116.228 43.7834 114.797 44.8375V271.588H192.81L191.431 252.516L183.846 147.8H336.607L329.021 252.516L327.642 271.588H404.791V38.7371C403.643 37.9597 402.489 37.1955 401.328 36.4445ZM204.617 130.507H182.593L178.523 74.3119H204.617V130.507ZM309.773 130.507H272.782V129.394C272.782 128.858 272.676 128.329 272.471 127.834C272.266 127.34 271.965 126.891 271.586 126.512C271.207 126.134 270.756 125.835 270.261 125.63C269.766 125.426 269.235 125.321 268.699 125.322H252.618C252.082 125.322 251.552 125.427 251.057 125.632C250.563 125.836 250.113 126.136 249.735 126.514C249.356 126.892 249.056 127.341 248.851 127.835C248.646 128.329 248.541 128.859 248.541 129.394V130.507H209.815V74.3119H309.773V130.507ZM314.965 130.507V74.3119H341.936L337.867 130.507H314.965Z" fill="#9F7F66"/>
<path d="M0 286.108C5.73026 292.89 11.9282 299.262 18.5484 305.18L500.452 305.839C507.072 299.921 513.27 293.548 519 286.767L0 286.108Z" fill="#9F7F66"/>
<path d="M326.794 225.038V281.5C326.795 282.219 327.081 282.909 327.591 283.418C328.1 283.927 328.791 284.213 329.511 284.213H413.286C414.006 284.213 414.697 283.927 415.206 283.418C415.716 282.909 416.002 282.219 416.003 281.5V225.038C416.001 224.319 415.714 223.63 415.205 223.122C414.695 222.614 414.005 222.329 413.286 222.328H329.511C328.791 222.329 328.101 222.614 327.592 223.122C327.083 223.631 326.796 224.319 326.794 225.038V225.038Z" fill="#9F7F66"/>
<path d="M328.759 225.741V280.803C328.76 281.188 328.913 281.556 329.185 281.828C329.458 282.1 329.827 282.253 330.211 282.253H412.588C412.973 282.253 413.342 282.1 413.614 281.828C413.886 281.556 414.04 281.188 414.04 280.803V225.741C414.04 225.356 413.887 224.987 413.615 224.714C413.343 224.442 412.973 224.288 412.588 224.288H330.211C329.826 224.288 329.457 224.442 329.185 224.714C328.912 224.987 328.759 225.356 328.759 225.741V225.741Z" fill="#414242"/>
<path d="M325.042 292.511C325.196 292.703 325.391 292.858 325.613 292.964C325.835 293.07 326.078 293.125 326.324 293.124H416.027C416.272 293.123 416.514 293.068 416.735 292.963C416.957 292.857 417.152 292.704 417.306 292.514C417.461 292.323 417.571 292.101 417.629 291.863C417.687 291.625 417.69 291.377 417.64 291.137L416.248 284.531C416.19 284.262 416.066 284.011 415.886 283.802C415.707 283.593 415.478 283.432 415.22 283.333C415.033 283.26 414.835 283.223 414.634 283.223H327.711C327.51 283.223 327.312 283.26 327.125 283.333C326.867 283.432 326.638 283.593 326.459 283.802C326.279 284.011 326.155 284.262 326.097 284.531L324.705 291.137C324.655 291.377 324.66 291.624 324.718 291.862C324.777 292.1 324.887 292.321 325.042 292.511V292.511Z" fill="#2F2E41"/>
<path d="M411.556 286.068H413.675C413.853 286.068 413.997 285.924 413.997 285.747V284.734C413.997 284.557 413.853 284.413 413.675 284.413H411.556C411.378 284.413 411.234 284.557 411.234 284.734V285.747C411.234 285.924 411.378 286.068 411.556 286.068Z" fill="#9F7F66"/>
<path d="M406.031 286.068H408.149C408.327 286.068 408.471 285.924 408.471 285.747V284.734C408.471 284.557 408.327 284.413 408.149 284.413H406.031C405.853 284.413 405.709 284.557 405.709 284.734V285.747C405.709 285.924 405.853 286.068 406.031 286.068Z" fill="#9F7F66"/>
<path d="M400.505 286.068H402.624C402.802 286.068 402.946 285.924 402.946 285.747V284.734C402.946 284.557 402.802 284.413 402.624 284.413H400.505C400.327 284.413 400.183 284.557 400.183 284.734V285.747C400.183 285.924 400.327 286.068 400.505 286.068Z" fill="#9F7F66"/>
<path d="M394.979 286.068H397.098C397.276 286.068 397.42 285.924 397.42 285.747V284.734C397.42 284.557 397.276 284.413 397.098 284.413H394.979C394.802 284.413 394.657 284.557 394.657 284.734V285.747C394.657 285.924 394.802 286.068 394.979 286.068Z" fill="#9F7F66"/>
<path d="M389.454 286.068H391.573C391.751 286.068 391.895 285.924 391.895 285.747V284.734C391.895 284.557 391.751 284.413 391.573 284.413H389.454C389.276 284.413 389.132 284.557 389.132 284.734V285.747C389.132 285.924 389.276 286.068 389.454 286.068Z" fill="#9F7F66"/>
<path d="M383.928 286.068H386.047C386.225 286.068 386.369 285.924 386.369 285.747V284.734C386.369 284.557 386.225 284.413 386.047 284.413H383.928C383.751 284.413 383.606 284.557 383.606 284.734V285.747C383.606 285.924 383.751 286.068 383.928 286.068Z" fill="#9F7F66"/>
<path d="M378.403 286.068H380.522C380.699 286.068 380.844 285.924 380.844 285.747V284.734C380.844 284.557 380.699 284.413 380.522 284.413H378.403C378.225 284.413 378.081 284.557 378.081 284.734V285.747C378.081 285.924 378.225 286.068 378.403 286.068Z" fill="#9F7F66"/>
<path d="M372.877 286.068H374.996C375.174 286.068 375.318 285.924 375.318 285.747V284.734C375.318 284.557 375.174 284.413 374.996 284.413H372.877C372.699 284.413 372.555 284.557 372.555 284.734V285.747C372.555 285.924 372.699 286.068 372.877 286.068Z" fill="#9F7F66"/>
<path d="M367.351 286.068H369.47C369.648 286.068 369.792 285.924 369.792 285.747V284.734C369.792 284.557 369.648 284.413 369.47 284.413H367.351C367.174 284.413 367.029 284.557 367.029 284.734V285.747C367.029 285.924 367.174 286.068 367.351 286.068Z" fill="#9F7F66"/>
<path d="M361.826 286.068H363.945C364.122 286.068 364.267 285.924 364.267 285.747V284.734C364.267 284.557 364.122 284.413 363.945 284.413H361.826C361.648 284.413 361.504 284.557 361.504 284.734V285.747C361.504 285.924 361.648 286.068 361.826 286.068Z" fill="#9F7F66"/>
<path d="M356.3 286.068H358.419C358.597 286.068 358.741 285.924 358.741 285.747V284.734C358.741 284.557 358.597 284.413 358.419 284.413H356.3C356.122 284.413 355.978 284.557 355.978 284.734V285.747C355.978 285.924 356.122 286.068 356.3 286.068Z" fill="#9F7F66"/>
<path d="M350.775 286.068H352.893C353.071 286.068 353.215 285.924 353.215 285.747V284.734C353.215 284.557 353.071 284.413 352.893 284.413H350.775C350.597 284.413 350.453 284.557 350.453 284.734V285.747C350.453 285.924 350.597 286.068 350.775 286.068Z" fill="#9F7F66"/>
<path d="M345.249 286.068H347.368C347.546 286.068 347.69 285.924 347.69 285.747V284.734C347.69 284.557 347.546 284.413 347.368 284.413H345.249C345.071 284.413 344.927 284.557 344.927 284.734V285.747C344.927 285.924 345.071 286.068 345.249 286.068Z" fill="#9F7F66"/>
<path d="M339.724 286.068H341.842C342.02 286.068 342.164 285.924 342.164 285.747V284.734C342.164 284.557 342.02 284.413 341.842 284.413H339.724C339.546 284.413 339.401 284.557 339.401 284.734V285.747C339.401 285.924 339.546 286.068 339.724 286.068Z" fill="#9F7F66"/>
<path d="M334.198 286.068H336.317C336.495 286.068 336.639 285.924 336.639 285.747V284.734C336.639 284.557 336.495 284.413 336.317 284.413H334.198C334.02 284.413 333.876 284.557 333.876 284.734V285.747C333.876 285.924 334.02 286.068 334.198 286.068Z" fill="#9F7F66"/>
<path d="M328.672 286.068H330.791C330.969 286.068 331.113 285.924 331.113 285.747V284.734C331.113 284.557 330.969 284.413 330.791 284.413H328.672C328.494 284.413 328.35 284.557 328.35 284.734V285.747C328.35 285.924 328.494 286.068 328.672 286.068Z" fill="#9F7F66"/>
<path d="M411.621 288.828H413.74C413.918 288.828 414.062 288.684 414.062 288.506V287.494C414.062 287.316 413.918 287.172 413.74 287.172H411.621C411.444 287.172 411.299 287.316 411.299 287.494V288.506C411.299 288.684 411.444 288.828 411.621 288.828Z" fill="#9F7F66"/>
<path d="M406.096 288.828H408.215C408.393 288.828 408.537 288.684 408.537 288.506V287.494C408.537 287.316 408.393 287.172 408.215 287.172H406.096C405.918 287.172 405.774 287.316 405.774 287.494V288.506C405.774 288.684 405.918 288.828 406.096 288.828Z" fill="#9F7F66"/>
<path d="M400.57 288.828H402.689C402.867 288.828 403.011 288.684 403.011 288.506V287.494C403.011 287.316 402.867 287.172 402.689 287.172H400.57C400.392 287.172 400.248 287.316 400.248 287.494V288.506C400.248 288.684 400.392 288.828 400.57 288.828Z" fill="#9F7F66"/>
<path d="M395.045 288.828H397.163C397.341 288.828 397.485 288.684 397.485 288.506V287.494C397.485 287.316 397.341 287.172 397.163 287.172H395.045C394.867 287.172 394.723 287.316 394.723 287.494V288.506C394.723 288.684 394.867 288.828 395.045 288.828Z" fill="#9F7F66"/>
<path d="M389.519 288.828H391.638C391.816 288.828 391.96 288.684 391.96 288.506V287.494C391.96 287.316 391.816 287.172 391.638 287.172H389.519C389.341 287.172 389.197 287.316 389.197 287.494V288.506C389.197 288.684 389.341 288.828 389.519 288.828Z" fill="#9F7F66"/>
<path d="M383.994 288.828H386.112C386.29 288.828 386.434 288.684 386.434 288.506V287.494C386.434 287.316 386.29 287.172 386.112 287.172H383.994C383.816 287.172 383.672 287.316 383.672 287.494V288.506C383.672 288.684 383.816 288.828 383.994 288.828Z" fill="#9F7F66"/>
<path d="M378.468 288.828H380.587C380.764 288.828 380.909 288.684 380.909 288.506V287.494C380.909 287.316 380.764 287.172 380.587 287.172H378.468C378.29 287.172 378.146 287.316 378.146 287.494V288.506C378.146 288.684 378.29 288.828 378.468 288.828Z" fill="#9F7F66"/>
<path d="M372.942 288.828H375.061C375.239 288.828 375.383 288.684 375.383 288.506V287.494C375.383 287.316 375.239 287.172 375.061 287.172H372.942C372.765 287.172 372.62 287.316 372.62 287.494V288.506C372.62 288.684 372.765 288.828 372.942 288.828Z" fill="#9F7F66"/>
<path d="M367.417 288.828H369.535C369.713 288.828 369.857 288.684 369.857 288.506V287.494C369.857 287.316 369.713 287.172 369.535 287.172H367.417C367.239 287.172 367.095 287.316 367.095 287.494V288.506C367.095 288.684 367.239 288.828 367.417 288.828Z" fill="#9F7F66"/>
<path d="M361.891 288.828H364.01C364.188 288.828 364.332 288.684 364.332 288.506V287.494C364.332 287.316 364.188 287.172 364.01 287.172H361.891C361.713 287.172 361.569 287.316 361.569 287.494V288.506C361.569 288.684 361.713 288.828 361.891 288.828Z" fill="#9F7F66"/>
<path d="M356.366 288.828H358.484C358.662 288.828 358.806 288.684 358.806 288.506V287.494C358.806 287.316 358.662 287.172 358.484 287.172H356.366C356.188 287.172 356.043 287.316 356.043 287.494V288.506C356.043 288.684 356.188 288.828 356.366 288.828Z" fill="#9F7F66"/>
<path d="M350.84 288.828H352.959C353.137 288.828 353.281 288.684 353.281 288.506V287.494C353.281 287.316 353.137 287.172 352.959 287.172H350.84C350.662 287.172 350.518 287.316 350.518 287.494V288.506C350.518 288.684 350.662 288.828 350.84 288.828Z" fill="#9F7F66"/>
<path d="M345.314 288.828H347.433C347.611 288.828 347.755 288.684 347.755 288.506V287.494C347.755 287.316 347.611 287.172 347.433 287.172H345.314C345.137 287.172 344.992 287.316 344.992 287.494V288.506C344.992 288.684 345.137 288.828 345.314 288.828Z" fill="#9F7F66"/>
<path d="M339.789 288.828H341.907C342.085 288.828 342.229 288.684 342.229 288.506V287.494C342.229 287.316 342.085 287.172 341.907 287.172H339.789C339.611 287.172 339.467 287.316 339.467 287.494V288.506C339.467 288.684 339.611 288.828 339.789 288.828Z" fill="#9F7F66"/>
<path d="M334.263 288.828H336.382C336.56 288.828 336.704 288.684 336.704 288.506V287.494C336.704 287.316 336.56 287.172 336.382 287.172H334.263C334.085 287.172 333.941 287.316 333.941 287.494V288.506C333.941 288.684 334.085 288.828 334.263 288.828Z" fill="#9F7F66"/>
<path d="M328.738 288.828H330.856C331.034 288.828 331.178 288.684 331.178 288.506V287.494C331.178 287.316 331.034 287.172 330.856 287.172H328.738C328.56 287.172 328.416 287.316 328.416 287.494V288.506C328.416 288.684 328.56 288.828 328.738 288.828Z" fill="#9F7F66"/>
<path d="M365.759 292.139H387.217C387.395 292.139 387.539 291.995 387.539 291.817V290.805C387.539 290.627 387.395 290.483 387.217 290.483H365.759C365.581 290.483 365.437 290.627 365.437 290.805V291.817C365.437 291.995 365.581 292.139 365.759 292.139Z" fill="#9F7F66"/>
<path d="M343.025 236.334H341.149C340.58 236.334 340.119 236.794 340.119 237.362C340.119 237.93 340.58 238.391 341.149 238.391H343.025C343.593 238.391 344.054 237.93 344.054 237.362C344.054 236.794 343.593 236.334 343.025 236.334Z" fill="white"/>
<path d="M364.477 236.334H362.602C362.033 236.334 361.572 236.794 361.572 237.362C361.572 237.93 362.033 238.391 362.602 238.391H364.477C365.046 238.391 365.507 237.93 365.507 237.362C365.507 236.794 365.046 236.334 364.477 236.334Z" fill="white"/>
<path d="M370.556 236.334H368.68C368.111 236.334 367.65 236.794 367.65 237.362C367.65 237.93 368.111 238.391 368.68 238.391H370.556C371.124 238.391 371.585 237.93 371.585 237.362C371.585 236.794 371.124 236.334 370.556 236.334Z" fill="white"/>
<path d="M358.642 236.162H346.984C346.415 236.162 345.954 236.623 345.954 237.191C345.954 237.759 346.415 238.219 346.984 238.219H358.642C359.211 238.219 359.672 237.759 359.672 237.191C359.672 236.623 359.211 236.162 358.642 236.162Z" fill="white"/>
<path d="M387.246 236.162H375.588C375.019 236.162 374.558 236.623 374.558 237.191C374.558 237.759 375.019 238.219 375.588 238.219H387.246C387.814 238.219 388.275 237.759 388.275 237.191C388.275 236.623 387.814 236.162 387.246 236.162Z" fill="white"/>
<path d="M348.745 240.976H346.87C346.301 240.976 345.84 241.437 345.84 242.005C345.84 242.573 346.301 243.033 346.87 243.033H348.745C349.314 243.033 349.775 242.573 349.775 242.005C349.775 241.437 349.314 240.976 348.745 240.976Z" fill="white"/>
<path d="M370.198 240.976H368.322C367.754 240.976 367.293 241.437 367.293 242.005C367.293 242.573 367.754 243.033 368.322 243.033H370.198C370.767 243.033 371.228 242.573 371.228 242.005C371.228 241.437 370.767 240.976 370.198 240.976Z" fill="white"/>
<path d="M376.276 240.976H374.401C373.832 240.976 373.371 241.437 373.371 242.005C373.371 242.573 373.832 243.033 374.401 243.033H376.276C376.845 243.033 377.306 242.573 377.306 242.005C377.306 241.437 376.845 240.976 376.276 240.976Z" fill="white"/>
<path d="M364.363 240.805H352.705C352.136 240.805 351.675 241.265 351.675 241.833C351.675 242.401 352.136 242.862 352.705 242.862H364.363C364.932 242.862 365.393 242.401 365.393 241.833C365.393 241.265 364.932 240.805 364.363 240.805Z" fill="white"/>
<path d="M392.966 240.805H381.308C380.74 240.805 380.279 241.265 380.279 241.833C380.279 242.401 380.74 242.862 381.308 242.862H392.966C393.535 242.862 393.996 242.401 393.996 241.833C393.996 241.265 393.535 240.805 392.966 240.805Z" fill="white"/>
<path d="M354.466 245.618H352.59C352.022 245.618 351.561 246.079 351.561 246.647C351.561 247.215 352.022 247.675 352.59 247.675H354.466C355.035 247.675 355.496 247.215 355.496 246.647C355.496 246.079 355.035 245.618 354.466 245.618Z" fill="white"/>
<path d="M375.919 245.618H374.043C373.474 245.618 373.013 246.079 373.013 246.647C373.013 247.215 373.474 247.675 374.043 247.675H375.919C376.487 247.675 376.948 247.215 376.948 246.647C376.948 246.079 376.487 245.618 375.919 245.618Z" fill="white"/>
<path d="M381.997 245.618H380.121C379.553 245.618 379.092 246.079 379.092 246.647C379.092 247.215 379.553 247.675 380.121 247.675H381.997C382.566 247.675 383.027 247.215 383.027 246.647C383.027 246.079 382.566 245.618 381.997 245.618Z" fill="white"/>
<path d="M370.084 245.447H358.426C357.857 245.447 357.396 245.907 357.396 246.475C357.396 247.043 357.857 247.504 358.426 247.504H370.084C370.652 247.504 371.113 247.043 371.113 246.475C371.113 245.907 370.652 245.447 370.084 245.447Z" fill="white"/>
<path d="M398.687 245.447H387.029C386.461 245.447 386 245.907 386 246.475C386 247.043 386.461 247.504 387.029 247.504H398.687C399.256 247.504 399.717 247.043 399.717 246.475C399.717 245.907 399.256 245.447 398.687 245.447Z" fill="white"/>
<path d="M360.187 250.261H358.311C357.742 250.261 357.281 250.721 357.281 251.289C357.281 251.857 357.742 252.318 358.311 252.318H360.187C360.756 252.318 361.217 251.857 361.217 251.289C361.217 250.721 360.756 250.261 360.187 250.261Z" fill="white"/>
<path d="M381.64 250.261H379.764C379.195 250.261 378.734 250.721 378.734 251.289C378.734 251.857 379.195 252.318 379.764 252.318H381.64C382.208 252.318 382.669 251.857 382.669 251.289C382.669 250.721 382.208 250.261 381.64 250.261Z" fill="white"/>
<path d="M387.718 250.261H385.842C385.273 250.261 384.812 250.721 384.812 251.289C384.812 251.857 385.273 252.318 385.842 252.318H387.718C388.286 252.318 388.747 251.857 388.747 251.289C388.747 250.721 388.286 250.261 387.718 250.261Z" fill="white"/>
<path d="M375.804 250.089H364.146C363.578 250.089 363.117 250.55 363.117 251.118C363.117 251.686 363.578 252.146 364.146 252.146H375.804C376.373 252.146 376.834 251.686 376.834 251.118C376.834 250.55 376.373 250.089 375.804 250.089Z" fill="white"/>
<path d="M364.477 268.72H362.602C362.033 268.72 361.572 269.181 361.572 269.749C361.572 270.317 362.033 270.777 362.602 270.777H364.477C365.046 270.777 365.507 270.317 365.507 269.749C365.507 269.181 365.046 268.72 364.477 268.72Z" fill="white"/>
<path d="M370.556 268.72H368.68C368.111 268.72 367.65 269.181 367.65 269.749C367.65 270.317 368.111 270.777 368.68 270.777H370.556C371.124 270.777 371.585 270.317 371.585 269.749C371.585 269.181 371.124 268.72 370.556 268.72Z" fill="white"/>
<path d="M387.246 268.892H375.588C375.019 268.892 374.558 269.352 374.558 269.92C374.558 270.488 375.019 270.949 375.588 270.949H387.246C387.814 270.949 388.275 270.488 388.275 269.92C388.275 269.352 387.814 268.892 387.246 268.892Z" fill="white"/>
<path d="M343.025 268.72H341.149C340.58 268.72 340.119 269.181 340.119 269.749C340.119 270.317 340.58 270.777 341.149 270.777H343.025C343.593 270.777 344.054 270.317 344.054 269.749C344.054 269.181 343.593 268.72 343.025 268.72Z" fill="white"/>
<path d="M358.642 268.892H346.984C346.415 268.892 345.954 269.352 345.954 269.92C345.954 270.488 346.415 270.949 346.984 270.949H358.642C359.211 270.949 359.672 270.488 359.672 269.92C359.672 269.352 359.211 268.892 358.642 268.892Z" fill="white"/>
<path d="M348.745 264.078H346.87C346.301 264.078 345.84 264.539 345.84 265.107C345.84 265.675 346.301 266.135 346.87 266.135H348.745C349.314 266.135 349.775 265.675 349.775 265.107C349.775 264.539 349.314 264.078 348.745 264.078Z" fill="white"/>
<path d="M370.198 264.078H368.322C367.754 264.078 367.293 264.539 367.293 265.107C367.293 265.675 367.754 266.135 368.322 266.135H370.198C370.767 266.135 371.228 265.675 371.228 265.107C371.228 264.539 370.767 264.078 370.198 264.078Z" fill="white"/>
<path d="M376.276 264.078H374.401C373.832 264.078 373.371 264.539 373.371 265.107C373.371 265.675 373.832 266.135 374.401 266.135H376.276C376.845 266.135 377.306 265.675 377.306 265.107C377.306 264.539 376.845 264.078 376.276 264.078Z" fill="white"/>
<path d="M364.363 264.25H352.705C352.136 264.25 351.675 264.71 351.675 265.278C351.675 265.846 352.136 266.306 352.705 266.306H364.363C364.932 266.306 365.393 265.846 365.393 265.278C365.393 264.71 364.932 264.25 364.363 264.25Z" fill="white"/>
<path d="M354.466 259.436H352.59C352.022 259.436 351.561 259.896 351.561 260.464C351.561 261.032 352.022 261.493 352.59 261.493H354.466C355.035 261.493 355.496 261.032 355.496 260.464C355.496 259.896 355.035 259.436 354.466 259.436Z" fill="white"/>
<path d="M375.919 259.436H374.043C373.474 259.436 373.013 259.896 373.013 260.464C373.013 261.032 373.474 261.493 374.043 261.493H375.919C376.487 261.493 376.948 261.032 376.948 260.464C376.948 259.896 376.487 259.436 375.919 259.436Z" fill="white"/>
<path d="M381.997 259.436H380.121C379.553 259.436 379.092 259.896 379.092 260.464C379.092 261.032 379.553 261.493 380.121 261.493H381.997C382.566 261.493 383.027 261.032 383.027 260.464C383.027 259.896 382.566 259.436 381.997 259.436Z" fill="white"/>
<path d="M370.084 259.607H358.426C357.857 259.607 357.396 260.068 357.396 260.636C357.396 261.204 357.857 261.664 358.426 261.664H370.084C370.652 261.664 371.113 261.204 371.113 260.636C371.113 260.068 370.652 259.607 370.084 259.607Z" fill="white"/>
<path d="M360.187 254.794H358.311C357.742 254.794 357.281 255.254 357.281 255.822C357.281 256.39 357.742 256.85 358.311 256.85H360.187C360.756 256.85 361.217 256.39 361.217 255.822C361.217 255.254 360.756 254.794 360.187 254.794Z" fill="white"/>
<path d="M381.64 254.794H379.764C379.195 254.794 378.734 255.254 378.734 255.822C378.734 256.39 379.195 256.85 379.764 256.85H381.64C382.208 256.85 382.669 256.39 382.669 255.822C382.669 255.254 382.208 254.794 381.64 254.794Z" fill="white"/>
<path d="M387.718 254.794H385.842C385.273 254.794 384.812 255.254 384.812 255.822C384.812 256.39 385.273 256.85 385.842 256.85H387.718C388.286 256.85 388.747 256.39 388.747 255.822C388.747 255.254 388.286 254.794 387.718 254.794Z" fill="white"/>
<path d="M375.804 254.965H364.146C363.578 254.965 363.117 255.425 363.117 255.993C363.117 256.561 363.578 257.022 364.146 257.022H375.804C376.373 257.022 376.834 256.561 376.834 255.993C376.834 255.425 376.373 254.965 375.804 254.965Z" fill="white"/>
<path d="M333.052 323.126L324.247 309.225L351.886 287.219L363.294 274.596C364.776 272.956 366.663 271.733 368.767 271.05C370.871 270.366 373.117 270.246 375.281 270.702C377.446 271.157 379.453 272.172 381.102 273.645C382.751 275.117 383.984 276.996 384.678 279.094C385.706 282.203 385.485 285.589 384.061 288.538C382.637 291.487 380.122 293.767 377.046 294.899L359.006 301.537L333.052 323.126Z" fill="#FFB6B6"/>
<path d="M126.442 222.33V289.896H173.836V222.33C173.836 221.844 173.681 221.371 173.393 220.98C173.104 220.588 172.698 220.3 172.233 220.156C172.014 220.084 171.784 220.048 171.553 220.051H128.731C128.431 220.05 128.133 220.109 127.856 220.223C127.578 220.337 127.326 220.505 127.113 220.717C126.901 220.929 126.732 221.18 126.617 221.457C126.502 221.734 126.442 222.031 126.442 222.33V222.33ZM144.938 245.546C144.95 244.214 145.489 242.941 146.436 242.003C147.383 241.066 148.663 240.54 149.997 240.54C151.331 240.54 152.61 241.066 153.558 242.003C154.505 242.941 155.044 244.214 155.056 245.546V253.386C155.049 254.722 154.513 256 153.565 256.942C152.617 257.884 151.334 258.413 149.997 258.413C148.66 258.413 147.377 257.884 146.429 256.942C145.481 256 144.945 254.722 144.938 253.386V245.546Z" fill="#2F2E41"/>
<path d="M126.297 287.735V294.251C126.298 294.588 126.432 294.912 126.671 295.151C126.909 295.39 127.232 295.526 127.57 295.529H172.708C173.046 295.527 173.37 295.392 173.608 295.152C173.847 294.913 173.981 294.589 173.981 294.251V287.735H126.297Z" fill="#9F7F66"/>
<path d="M51.8855 120.534V243.899C51.8867 245.471 52.5126 246.979 53.6256 248.09C54.7387 249.202 56.248 249.827 57.8221 249.828H240.866C242.44 249.827 243.949 249.202 245.062 248.09C246.175 246.979 246.801 245.471 246.802 243.899V120.534C246.799 118.963 246.172 117.458 245.059 116.347C243.946 115.237 242.439 114.613 240.866 114.611H57.8221C56.2493 114.613 54.7415 115.237 53.6288 116.347C52.5161 117.458 51.8893 118.963 51.8855 120.534Z" fill="#9F7F66"/>
<path d="M56.1796 122.068V242.377C56.181 243.217 56.5157 244.023 57.1104 244.616C57.7051 245.21 58.5113 245.545 59.3523 245.546H239.342C240.183 245.545 240.989 245.21 241.584 244.616C242.179 244.023 242.513 243.217 242.515 242.377V122.068C242.515 121.227 242.181 120.421 241.586 119.826C240.991 119.23 240.184 118.895 239.342 118.893H59.3523C58.5103 118.895 57.7033 119.23 57.1085 119.826C56.5137 120.421 56.1797 121.227 56.1796 122.068Z" fill="white"/>
<path d="M89.5826 295.088C89.7658 295.317 89.9986 295.502 90.2637 295.629C90.5287 295.755 90.8191 295.82 91.1129 295.819H198.195C198.488 295.818 198.777 295.753 199.041 295.627C199.306 295.501 199.539 295.318 199.723 295.091C199.907 294.863 200.039 294.598 200.108 294.314C200.177 294.029 200.181 293.733 200.121 293.447L198.459 285.561C198.39 285.24 198.242 284.941 198.027 284.691C197.813 284.441 197.54 284.249 197.232 284.132C197.009 284.045 196.772 284 196.533 284H92.7685C92.5292 284 92.2921 284.045 92.0693 284.132C91.7617 284.249 91.4882 284.441 91.2739 284.691C91.0596 284.941 90.9113 285.24 90.8424 285.561L89.1802 293.447C89.1211 293.733 89.1265 294.029 89.1961 294.313C89.2657 294.596 89.3977 294.861 89.5826 295.088Z" fill="#2F2E41"/>
<path d="M233.501 135.466H65.0852C64.9102 135.462 64.7436 135.39 64.6211 135.265C64.4987 135.14 64.4302 134.972 64.4302 134.797C64.4302 134.622 64.4987 134.454 64.6211 134.329C64.7436 134.204 64.9102 134.132 65.0852 134.128H233.501C233.676 134.132 233.843 134.204 233.965 134.329C234.087 134.454 234.156 134.622 234.156 134.797C234.156 134.972 234.087 135.14 233.965 135.265C233.843 135.39 233.676 135.462 233.501 135.466V135.466Z" fill="#9F7F66"/>
<path d="M76.5494 130.713C78.7171 130.713 80.4744 128.919 80.4744 126.706C80.4744 124.492 78.7171 122.698 76.5494 122.698C74.3817 122.698 72.6244 124.492 72.6244 126.706C72.6244 128.919 74.3817 130.713 76.5494 130.713Z" fill="#9F7F66"/>
<path d="M90.1086 130.713C92.2763 130.713 94.0336 128.919 94.0336 126.706C94.0336 124.492 92.2763 122.698 90.1086 122.698C87.9409 122.698 86.1836 124.492 86.1836 126.706C86.1836 128.919 87.9409 130.713 90.1086 130.713Z" fill="#9F7F66"/>
<path d="M103.668 130.713C105.835 130.713 107.593 128.919 107.593 126.706C107.593 124.492 105.835 122.698 103.668 122.698C101.5 122.698 99.7427 124.492 99.7427 126.706C99.7427 128.919 101.5 130.713 103.668 130.713Z" fill="#9F7F66"/>
<path d="M225.336 123.689H215.706C215.515 123.694 215.334 123.772 215.201 123.908C215.068 124.044 214.994 124.227 214.994 124.417C214.994 124.607 215.068 124.79 215.201 124.926C215.334 125.062 215.515 125.141 215.706 125.145H225.336C225.528 125.142 225.71 125.065 225.845 124.928C225.979 124.792 226.055 124.608 226.055 124.417C226.055 124.226 225.979 124.042 225.845 123.906C225.71 123.77 225.528 123.692 225.336 123.689Z" fill="#9F7F66"/>
<path d="M225.336 126.423H215.706C215.515 126.427 215.334 126.506 215.201 126.642C215.067 126.778 214.993 126.961 214.993 127.151C214.993 127.341 215.067 127.524 215.201 127.66C215.334 127.796 215.515 127.875 215.706 127.879H225.336C225.528 127.877 225.711 127.799 225.846 127.663C225.981 127.527 226.056 127.343 226.056 127.151C226.056 126.96 225.981 126.776 225.846 126.639C225.711 126.503 225.528 126.425 225.336 126.423V126.423Z" fill="#9F7F66"/>
<path d="M225.336 129.157H215.706C215.515 129.162 215.334 129.24 215.201 129.376C215.068 129.512 214.994 129.695 214.994 129.885C214.994 130.075 215.068 130.258 215.201 130.394C215.334 130.53 215.515 130.609 215.706 130.613H225.336C225.528 130.61 225.71 130.532 225.845 130.396C225.979 130.26 226.055 130.076 226.055 129.885C226.055 129.694 225.979 129.51 225.845 129.374C225.71 129.238 225.528 129.16 225.336 129.157V129.157Z" fill="#9F7F66"/>
<path d="M457.508 290.595C457.798 291.44 458.35 292.171 459.082 292.684C459.815 293.197 460.692 293.464 461.586 293.448L479.061 292.999C479.962 292.981 480.833 292.673 481.544 292.12C482.255 291.567 482.768 290.799 483.006 289.931L485.479 263.522C486.356 263.919 487.311 264.115 488.274 264.095C489.111 264.074 489.935 263.889 490.7 263.55C491.465 263.211 492.155 262.725 492.732 262.119C493.309 261.513 493.76 260.8 494.061 260.02C494.362 259.24 494.506 258.408 494.485 257.573C494.464 256.737 494.278 255.914 493.939 255.15C493.599 254.386 493.112 253.696 492.506 253.12C491.899 252.544 491.185 252.093 490.404 251.793C489.623 251.493 488.791 251.349 487.954 251.37C487.569 251.369 487.185 251.408 486.809 251.489C486.4 251.046 485.902 250.695 485.348 250.456C484.795 250.217 484.197 250.097 483.594 250.103L456.714 250.797C456.491 250.805 456.269 250.832 456.051 250.879C455.462 250.989 454.903 251.223 454.412 251.567C453.92 251.91 453.509 252.355 453.204 252.871C452.9 253.387 452.709 253.962 452.646 254.557C452.582 255.153 452.648 255.755 452.837 256.323L457.508 290.595ZM485.986 261.729L487.745 255.435C487.945 254.708 487.95 253.942 487.759 253.212C487.844 253.212 487.919 253.172 488.005 253.171C489.211 253.146 490.379 253.6 491.25 254.434C492.122 255.267 492.628 256.411 492.656 257.616C492.684 258.821 492.233 259.988 491.401 260.861C490.569 261.734 489.425 262.242 488.218 262.274C487.438 262.298 486.666 262.11 485.986 261.729Z" fill="#2F2E41"/>
<path d="M456.051 250.879C456.624 254.149 463.062 256.448 470.804 256.048C477.923 255.721 483.744 253.224 484.81 250.265C484.416 250.149 484.005 250.094 483.594 250.103L456.714 250.796C456.491 250.805 456.269 250.832 456.051 250.879V250.879Z" fill="#9F7F66"/>
<path d="M472.223 276.083C472.258 276.074 472.292 276.059 472.322 276.039L476.117 273.558C476.163 273.528 476.201 273.488 476.227 273.439C476.253 273.391 476.267 273.338 476.267 273.283C476.267 273.228 476.253 273.174 476.227 273.126C476.201 273.078 476.163 273.037 476.118 273.007L472.173 270.427C472.137 270.403 472.096 270.387 472.054 270.378C472.011 270.37 471.967 270.37 471.925 270.379C471.882 270.388 471.842 270.405 471.806 270.429C471.77 270.454 471.739 270.485 471.716 270.521C471.692 270.557 471.675 270.598 471.667 270.641C471.659 270.683 471.66 270.727 471.669 270.769C471.678 270.812 471.695 270.852 471.719 270.888C471.744 270.924 471.775 270.954 471.812 270.978L475.335 273.282L471.961 275.488C471.896 275.531 471.848 275.595 471.826 275.67C471.804 275.744 471.809 275.825 471.84 275.896C471.871 275.967 471.927 276.025 471.997 276.059C472.067 276.094 472.147 276.102 472.223 276.083H472.223Z" fill="#414242"/>
<path d="M466.229 276.359C466.293 276.343 466.35 276.308 466.394 276.259C466.438 276.21 466.466 276.149 466.475 276.084C466.484 276.019 466.473 275.953 466.444 275.894C466.415 275.835 466.369 275.787 466.312 275.754L462.814 273.751L466.195 271.243C466.23 271.217 466.259 271.185 466.281 271.147C466.304 271.11 466.318 271.069 466.325 271.027C466.331 270.984 466.329 270.94 466.318 270.898C466.308 270.856 466.289 270.817 466.263 270.782C466.237 270.747 466.205 270.718 466.168 270.696C466.13 270.674 466.089 270.659 466.047 270.653C466.004 270.647 465.96 270.649 465.918 270.659C465.876 270.67 465.837 270.689 465.802 270.714L462.017 273.523C461.973 273.555 461.937 273.598 461.914 273.648C461.891 273.697 461.881 273.752 461.884 273.806C461.887 273.861 461.904 273.914 461.933 273.96C461.962 274.007 462.002 274.045 462.049 274.072L465.984 276.325C466.058 276.368 466.146 276.38 466.229 276.359V276.359Z" fill="#414242"/>
<path d="M471.845 278.257C471.877 278.249 471.908 278.236 471.936 278.219C471.973 278.196 472.005 278.167 472.031 278.132C472.056 278.097 472.075 278.057 472.085 278.015C472.095 277.973 472.097 277.93 472.09 277.887C472.084 277.844 472.069 277.803 472.046 277.766L466.667 268.933C466.621 268.858 466.548 268.805 466.463 268.784C466.378 268.764 466.288 268.778 466.213 268.823C466.139 268.869 466.085 268.942 466.065 269.027C466.044 269.111 466.058 269.201 466.103 269.276L471.483 278.109C471.519 278.169 471.574 278.216 471.64 278.242C471.705 278.269 471.777 278.274 471.845 278.257Z" fill="#414242"/>
<path d="M169.416 171.831H140.267C139.078 171.831 138.114 172.794 138.114 173.982V176.826C138.114 178.014 139.078 178.976 140.267 178.976H169.416C170.605 178.976 171.569 178.014 171.569 176.826V173.982C171.569 172.794 170.605 171.831 169.416 171.831Z" fill="#414242"/>
<path d="M186.407 186.122H123.276C122.087 186.122 121.123 187.084 121.123 188.272V191.116C121.123 192.304 122.087 193.267 123.276 193.267H186.407C187.596 193.267 188.56 192.304 188.56 191.116V188.272C188.56 187.084 187.596 186.122 186.407 186.122Z" fill="#E6E6E6"/>
<path d="M186.407 200.412H123.276C122.087 200.412 121.123 201.374 121.123 202.562V205.406C121.123 206.594 122.087 207.557 123.276 207.557H186.407C187.596 207.557 188.56 206.594 188.56 205.406V202.562C188.56 201.374 187.596 200.412 186.407 200.412Z" fill="#E6E6E6"/>
<path d="M191.758 248.264L191.901 248.715L191.909 248.73L196.213 261.799L201.164 276.86L210.48 305.162L210.57 309.559V309.574L211.262 344.941L209.343 349.735L211.503 357.596C211.503 357.596 210.51 345.714 205.182 352.538C202.165 356.416 198.636 360.384 195.739 364.104C199.96 365.81 204.249 367.353 208.606 368.733C209.546 369.034 210.495 369.319 211.443 369.605C211.646 369.665 211.849 369.725 212.052 369.785C226.494 374.051 241.425 376.448 256.478 376.917C257.26 376.94 258.028 376.955 258.773 376.97C259.036 376.978 259.292 376.985 259.548 376.985C260.391 376.993 261.226 377 262.069 377C263.769 377 265.462 376.975 267.148 376.925C279.623 376.574 292.026 374.898 304.147 371.927C304.064 366.93 303.838 361.09 303.515 354.852C303.364 351.794 299.986 348.479 299.783 345.278C299.64 342.873 302.672 340.611 302.514 338.168C301.491 323.13 300.211 328.903 299.263 318.254C299.166 317.209 299.075 316.21 298.992 315.255C298.383 308.416 297.962 304.14 297.962 304.14L302.01 278.656L308.368 238.644L307.879 237.84L307.33 237.57L273.792 220.991L271.971 216.331C271.441 214.989 270.52 213.836 269.328 213.02C268.136 212.205 266.727 211.764 265.282 211.754L243.189 211.664C242.043 211.659 240.912 211.927 239.89 212.446C238.867 212.965 237.984 213.72 237.313 214.648L231.33 222.922L191.758 248.264Z" fill="#9F7F66"/>
<path d="M215.574 298.864L210.57 309.559L207.154 316.864L201.277 347.594L198.335 350.712L195.814 339.671L169.431 345.522C168.565 340.72 169.199 345.685 168.665 340.416C168.815 340.266 168.973 340.116 169.131 339.966C169.553 339.575 169.906 339.207 169.899 338.853C169.598 320.681 170.501 289.756 178.041 271.02C179.221 267.961 180.778 265.06 182.676 262.385C182.826 262.182 182.969 261.979 183.112 261.776C186.589 256.914 188.786 252.127 191.901 248.722V248.715C191.92 248.699 191.938 248.681 191.954 248.662C191.965 248.657 191.975 248.649 191.984 248.64L213.384 237.307L214.302 263.069L214.957 281.587L215.574 298.864Z" fill="#9F7F66"/>
<path d="M292.739 301.902L298.99 315.259L301.171 319.911L307.046 350.638L309.979 353.749L312.505 342.711L313.693 342.468L335.103 338.039L341.343 357.833C342.75 355.493 343.304 352.739 342.912 350.037C342.52 347.336 341.206 344.852 339.192 343.007C338.766 342.622 338.411 342.247 338.421 341.892C338.776 320.519 337.467 281.491 325.646 265.428C321.891 260.331 319.639 255.254 316.361 251.707C316.351 251.696 316.351 251.686 316.341 251.686L308.365 238.643L307.878 237.843L307.33 237.569L292.739 301.902Z" fill="#9F7F66"/>
<path d="M254.874 205.385C271.106 205.385 284.265 192.242 284.265 176.03C284.265 159.818 271.106 146.675 254.874 146.675C238.641 146.675 225.482 159.818 225.482 176.03C225.482 192.242 238.641 205.385 254.874 205.385Z" fill="#FFB6B6"/>
<path d="M294.6 155.526C294.372 155.283 294.097 155.088 293.792 154.953C293.488 154.819 293.159 154.747 292.825 154.742L293.267 153.517C293.411 153.131 293.45 152.713 293.38 152.307C293.31 151.901 293.133 151.522 292.867 151.206C292.601 150.891 292.256 150.653 291.867 150.514C291.479 150.376 291.06 150.344 290.655 150.42L289.046 150.73L289.197 149.656C289.256 149.256 289.209 148.848 289.061 148.472C288.913 148.095 288.67 147.764 288.355 147.51C288.04 147.256 287.665 147.089 287.265 147.024C286.866 146.959 286.457 146.999 286.077 147.14C285.732 147.275 285.361 147.332 284.992 147.306C284.622 147.279 284.263 147.171 283.94 146.988C283.617 146.811 283.336 146.565 283.117 146.268C282.898 145.971 282.747 145.63 282.674 145.269L282.113 142.567L282.054 142.423C279.323 137.877 274.072 134.57 267.648 133.358C261.929 132.271 256.065 132.824 250.412 133.344C248.169 133.555 245.636 133.792 243.526 135.084C241.731 136.19 240.214 138.404 240.524 140.637C234.951 138.931 228.974 142.337 226.013 146.632C222.504 151.744 221.93 158.148 221.837 163.155C221.587 175 224.034 184.691 229.093 191.964C229.462 192.491 229.555 193.591 230.287 193.96L230.135 193.716C230.953 194.125 231.784 194.783 231.474 195.488C230.584 197.517 236.501 202.004 240.669 203.486C248.275 206.194 258.387 205.963 265.497 204.988L265.748 203.308C268.314 202.959 270.121 202.294 270.629 201.253C271.526 200.489 272.291 199.803 272.958 199.171L272.964 199.164C272.977 199.151 273.004 199.132 273.017 199.118C276.229 196.042 276.975 194.289 277.311 191.621C277.634 189.006 277.06 186.351 276.473 183.96C288.835 185.87 271.605 170.81 283.122 167.898C283.254 167.857 283.389 167.824 283.525 167.799C283.861 167.72 284.197 167.641 284.521 167.549C286.079 167.127 287.571 166.49 288.953 165.658C292.172 163.702 293.234 161.106 294.897 158.181C295.136 157.764 295.237 157.282 295.184 156.805C295.13 156.327 294.926 155.879 294.6 155.526V155.526Z" fill="#2F2E41"/>
<path d="M358.827 303.992C358.82 305.145 358.807 306.759 358.754 308.755C358.748 309.032 358.741 309.315 358.734 309.605C358.649 313.274 358.563 316.351 358.424 319.77C358.418 320.007 358.411 320.238 358.398 320.475C358.213 325.244 357.923 330.798 357.422 339.593C356.492 355.839 354.869 341.826 353.24 347.525C353.161 347.808 353.075 348.144 352.996 348.539C352.749 349.974 352.333 351.373 351.756 352.71C350.891 353.223 350.001 353.718 349.124 354.212C346.624 355.602 344.084 356.939 341.525 358.211C340.087 358.922 338.642 359.62 337.191 360.292C336.96 360.398 336.736 360.503 336.512 360.602C329.081 364.035 321.422 366.954 313.59 369.338C312.06 369.799 310.536 370.247 308.993 370.662C307.383 371.11 305.774 371.531 304.144 371.927C292.024 374.898 279.622 376.575 267.147 376.927C265.465 376.98 263.769 376.999 262.067 376.999C261.223 376.999 260.392 376.993 259.548 376.986C259.291 376.986 259.033 376.98 258.776 376.973C258.031 376.953 257.259 376.94 256.481 376.92C241.427 376.451 226.497 374.054 212.055 369.786L211.442 369.608C210.492 369.318 209.549 369.035 208.606 368.731C204.252 367.355 199.962 365.813 195.736 364.107C192.511 362.809 189.323 361.417 186.172 359.93C186.143 359.922 186.116 359.909 186.093 359.89C185.433 359.587 184.767 359.271 184.107 358.948C184.022 358.902 183.929 358.856 183.837 358.81C181.376 357.611 178.942 356.355 176.535 355.042C174.51 350.397 171.66 349.508 169.893 345.423C169.378 344.21 169.006 342.941 168.784 341.642C168.784 341.629 168.778 341.616 168.778 341.596C168.963 344.046 167.993 337.248 168.771 341.569C168.765 341.49 168.758 341.405 168.751 341.306C168.732 341.069 168.705 340.779 168.666 340.417C166.403 318.354 166.548 293.122 165.566 272.33C165.5 270.986 165.431 269.699 165.361 268.47C165.341 268.061 165.315 267.659 165.288 267.264C165.335 267.145 165.387 267.02 165.447 266.902C165.459 266.868 165.475 266.834 165.493 266.803C165.512 266.762 165.534 266.722 165.559 266.684C165.572 266.665 165.592 266.638 165.605 266.618C165.615 266.596 165.626 266.574 165.638 266.553C165.697 266.46 165.763 266.361 165.836 266.269C165.869 266.23 165.895 266.197 165.928 266.164C165.951 266.13 165.978 266.099 166.007 266.072C166.028 266.04 166.052 266.011 166.08 265.986C166.106 265.96 166.133 265.927 166.166 265.894C166.18 265.873 166.198 265.855 166.219 265.841C166.271 265.781 166.328 265.726 166.39 265.676C166.625 265.46 166.877 265.262 167.142 265.083C167.234 265.024 167.333 264.965 167.426 264.899C168.09 264.502 168.79 264.167 169.517 263.898C169.767 263.805 170.018 263.72 170.288 263.628C170.387 263.601 170.48 263.568 170.579 263.535C170.724 263.489 170.869 263.443 171.021 263.41C171.772 263.186 172.584 262.995 173.461 262.817C173.567 262.797 173.679 262.778 173.791 262.751C173.949 262.718 174.114 262.692 174.279 262.666C174.503 262.626 174.734 262.587 174.965 262.547C176.924 262.237 179.147 262.007 181.601 261.855C181.832 261.842 182.063 261.829 182.293 261.816C182.564 261.803 182.834 261.789 183.111 261.776C183.342 261.763 183.58 261.757 183.817 261.75C184.048 261.737 184.285 261.73 184.529 261.724C185.196 261.704 185.882 261.684 186.581 261.671C188.573 261.631 190.671 261.645 192.874 261.691C193.896 261.717 194.938 261.743 196.007 261.789C196.079 261.789 196.145 261.796 196.211 261.796C197.141 261.829 198.078 261.869 199.041 261.921C199.714 261.954 200.393 261.987 201.073 262.027C201.712 262.066 202.359 262.106 203.012 262.152C203.52 262.178 204.028 262.218 204.542 262.251C204.978 262.284 205.413 262.317 205.848 262.343L206.442 262.382C206.765 262.409 207.088 262.429 207.418 262.461C208.144 262.521 208.869 262.58 209.608 262.639C210.34 262.705 211.086 262.771 211.831 262.837C212.576 262.903 213.328 262.975 214.08 263.048C214.159 263.054 214.232 263.061 214.305 263.068C214.991 263.14 215.677 263.206 216.369 263.278C216.528 263.292 216.692 263.305 216.851 263.324C217.511 263.391 218.184 263.468 218.851 263.539C219.055 263.561 219.259 263.582 219.464 263.605C219.986 263.662 220.5 263.711 221.026 263.772C221.719 263.851 222.424 263.924 223.11 264.016C223.645 264.075 224.179 264.135 224.713 264.201C225.551 264.299 226.402 264.405 227.253 264.517C227.576 264.556 227.899 264.596 228.222 264.642C230.65 264.945 233.104 265.281 235.597 265.63C239.377 266.164 243.216 266.744 247.081 267.369C250.953 267.995 254.847 268.656 258.763 269.352C259.752 269.53 260.742 269.708 261.738 269.893C262.186 269.978 262.635 270.064 263.083 270.15C263.848 270.288 264.614 270.433 265.379 270.578C266.144 270.723 266.909 270.868 267.674 271.019C268.584 271.197 269.501 271.375 270.412 271.553C276.407 272.739 282.37 274.004 288.188 275.328C289.145 275.545 290.101 275.769 291.051 275.986C292.951 276.428 294.833 276.876 296.697 277.33C297.212 277.449 297.72 277.574 298.228 277.699C299.494 278.016 300.761 278.332 302.007 278.655L302.225 278.714C303.142 278.938 304.039 279.168 304.936 279.406C307.053 279.959 309.135 280.519 311.182 281.086C312.541 281.461 313.885 281.841 315.213 282.225C317.198 282.798 319.144 283.378 321.037 283.964C321.506 284.109 321.974 284.254 322.436 284.393C323.821 284.821 325.186 285.256 326.512 285.69C327.567 286.033 328.596 286.382 329.612 286.731C330.628 287.081 331.624 287.43 332.6 287.779C333.227 288.003 333.847 288.24 334.467 288.464C335.357 288.793 336.235 289.123 337.092 289.452C337.356 289.551 337.613 289.656 337.871 289.755C338.036 289.828 338.194 289.887 338.352 289.953C338.662 290.078 338.979 290.197 339.282 290.322C339.592 290.44 339.896 290.566 340.199 290.697C340.496 290.816 340.799 290.941 341.09 291.066C341.386 291.185 341.677 291.31 341.967 291.442C342.211 291.541 342.448 291.646 342.679 291.751C343.148 291.956 343.616 292.16 344.071 292.371C344.295 292.476 344.52 292.575 344.744 292.68L345.258 292.917C345.331 292.957 345.403 292.99 345.476 293.023C345.641 293.102 345.812 293.188 345.977 293.267C346.36 293.444 346.736 293.636 347.105 293.813C347.6 294.064 348.081 294.314 348.543 294.558C349.012 294.808 349.467 295.059 349.902 295.302C349.975 295.342 350.041 295.381 350.113 295.421C350.212 295.474 350.311 295.533 350.41 295.586C350.746 295.777 351.07 295.974 351.393 296.165C352.026 296.554 352.626 296.936 353.187 297.318C353.312 297.404 353.431 297.489 353.556 297.568C353.972 297.865 354.368 298.155 354.737 298.451C354.737 298.458 354.737 298.458 354.744 298.458C354.869 298.55 354.988 298.649 355.106 298.741C355.205 298.833 355.311 298.912 355.41 299.005C355.753 299.301 356.069 299.584 356.36 299.874C356.457 299.964 356.549 300.058 356.637 300.158C356.675 300.189 356.71 300.225 356.742 300.263C356.874 300.395 356.993 300.526 357.105 300.658C357.122 300.676 357.138 300.696 357.151 300.718C357.31 300.902 357.455 301.086 357.593 301.271C357.659 301.363 357.732 301.455 357.791 301.548C357.87 301.66 357.949 301.778 358.015 301.89C358.075 301.982 358.127 302.081 358.18 302.174C358.32 302.411 358.439 302.66 358.536 302.918C358.611 303.093 358.67 303.273 358.715 303.458C358.764 303.633 358.802 303.811 358.827 303.992V303.992Z" fill="#2F2E41"/>
<path opacity="0.2" d="M358.827 303.992C358.82 305.145 358.807 306.759 358.754 308.755C358.747 309.032 358.734 309.315 358.728 309.605C358.662 312.405 358.563 315.863 358.424 319.77C358.418 320.007 358.411 320.238 358.398 320.475C358.213 325.244 357.923 330.798 357.422 339.593C356.492 355.839 354.869 341.826 353.24 347.525C348.715 344.745 343.754 341.833 338.451 338.842C337.495 338.302 336.529 337.759 335.555 337.215C324.949 331.305 313.102 325.113 300.734 318.979C300.246 318.736 299.751 318.492 299.263 318.255C270.933 304.268 240.01 290.664 214.958 281.586C210.123 279.834 205.505 278.253 201.165 276.863C192.023 273.944 184.12 271.902 178.039 271.019C171.706 270.097 167.333 270.426 165.565 272.33C165.499 270.986 165.431 269.699 165.361 268.47C165.334 268.061 165.308 267.659 165.282 267.264C165.322 267.156 165.375 267.052 165.427 266.948C165.434 266.932 165.439 266.917 165.447 266.902C165.459 266.868 165.475 266.834 165.493 266.803C165.512 266.762 165.534 266.722 165.559 266.684C165.58 266.638 165.607 266.593 165.638 266.553C165.697 266.46 165.763 266.361 165.836 266.269C165.889 266.2 165.946 266.134 166.007 266.072C166.028 266.04 166.052 266.011 166.08 265.986C166.106 265.96 166.133 265.927 166.166 265.894C166.18 265.873 166.198 265.855 166.218 265.841C166.271 265.781 166.328 265.726 166.39 265.676C166.625 265.46 166.877 265.262 167.142 265.083C167.234 265.024 167.333 264.965 167.425 264.899C168.09 264.502 168.79 264.167 169.516 263.898C169.767 263.805 170.018 263.72 170.288 263.627C170.387 263.601 170.48 263.568 170.578 263.535C170.724 263.489 170.869 263.443 171.02 263.41C171.772 263.186 172.584 262.995 173.461 262.817C173.725 262.764 174.002 262.712 174.279 262.666C174.503 262.626 174.734 262.587 174.965 262.547C176.924 262.237 179.147 262.007 181.601 261.855C181.832 261.842 182.062 261.829 182.293 261.816C182.564 261.803 182.834 261.789 183.111 261.776C183.342 261.763 183.58 261.756 183.817 261.75C184.048 261.737 184.285 261.73 184.529 261.724C185.196 261.704 185.882 261.684 186.581 261.671C188.573 261.638 190.67 261.651 192.874 261.697C193.896 261.717 194.938 261.75 196.007 261.796C196.073 261.796 196.145 261.803 196.211 261.803C197.141 261.829 198.085 261.875 199.041 261.921C199.714 261.954 200.393 261.987 201.073 262.027C201.712 262.066 202.359 262.106 203.012 262.152C203.52 262.178 204.028 262.218 204.542 262.251C204.977 262.284 205.413 262.316 205.848 262.343C206.369 262.382 206.89 262.422 207.418 262.461C208.144 262.521 208.869 262.58 209.608 262.639C210.34 262.705 211.086 262.771 211.831 262.837C212.576 262.903 213.328 262.975 214.08 263.048C214.159 263.054 214.232 263.061 214.304 263.067C214.99 263.14 215.676 263.206 216.369 263.278C220.208 263.667 224.159 264.122 228.222 264.642C230.65 264.952 233.108 265.283 235.597 265.637C239.376 266.17 243.215 266.75 247.081 267.369C250.953 267.995 254.847 268.656 258.763 269.352C259.752 269.53 260.742 269.708 261.738 269.893C262.951 270.117 264.165 270.345 265.379 270.578C266.144 270.723 266.909 270.868 267.674 271.019C268.584 271.197 269.501 271.375 270.412 271.553C276.407 272.739 282.37 274.003 288.188 275.328C289.145 275.545 290.101 275.769 291.051 275.986C292.951 276.428 294.833 276.876 296.697 277.33C297.212 277.456 297.72 277.581 298.228 277.706C299.501 278.022 300.76 278.338 302.007 278.655V278.661C302.08 278.674 302.152 278.694 302.225 278.714C303.135 278.944 304.039 279.175 304.936 279.412C307.053 279.966 309.135 280.523 311.182 281.086C312.541 281.468 313.887 281.843 315.213 282.225C317.198 282.805 319.144 283.385 321.037 283.964C321.505 284.109 321.974 284.254 322.436 284.393C323.821 284.827 325.18 285.26 326.512 285.69C327.567 286.033 328.596 286.382 329.612 286.731C330.628 287.081 331.624 287.43 332.6 287.779C333.233 288.003 333.853 288.233 334.467 288.457C335.364 288.787 336.235 289.116 337.092 289.452C337.356 289.551 337.613 289.656 337.871 289.755C338.352 289.94 338.82 290.131 339.282 290.322C339.592 290.44 339.896 290.566 340.199 290.697C340.496 290.816 340.799 290.941 341.089 291.066C341.386 291.185 341.677 291.31 341.967 291.442C342.211 291.541 342.448 291.646 342.679 291.751C343.147 291.956 343.616 292.16 344.071 292.371C344.295 292.476 344.52 292.575 344.744 292.68L345.258 292.917C345.331 292.957 345.403 292.99 345.476 293.023C346.037 293.286 346.577 293.55 347.105 293.813C347.6 294.064 348.081 294.314 348.543 294.558C349.091 294.848 349.612 295.131 350.113 295.421C350.212 295.474 350.311 295.533 350.41 295.586C350.746 295.777 351.069 295.974 351.393 296.165C352.026 296.554 352.626 296.936 353.187 297.318C353.741 297.7 354.255 298.076 354.737 298.451C354.737 298.458 354.737 298.458 354.744 298.458C354.974 298.642 355.199 298.827 355.41 299.005C355.753 299.301 356.069 299.584 356.36 299.874C356.457 299.964 356.549 300.058 356.637 300.158C356.675 300.189 356.71 300.225 356.742 300.263C356.881 300.415 357.019 300.566 357.151 300.718C357.31 300.902 357.455 301.086 357.593 301.271C357.659 301.363 357.732 301.455 357.791 301.548C357.87 301.66 357.949 301.778 358.015 301.89C358.075 301.982 358.127 302.081 358.18 302.174C358.32 302.411 358.439 302.66 358.536 302.918C358.609 303.094 358.668 303.274 358.714 303.458C358.764 303.633 358.802 303.812 358.827 303.992Z" fill="black"/>
</g>
<defs>
<clipPath id="clip0_4_253">
<rect width="519" height="377" fill="white"/>
</clipPath>
</defs>
</svg>
